<?xml version="1.0" encoding="UTF-8"?>
<svg id="FxSymbol0-03c" class="fxs-portal-svg" data-type="1" focusable="false" role="presentation" version="1.1" viewBox="0 0 50 50" xmlns="http://www.w3.org/2000/svg" xmlns:cc="http://creativecommons.org/ns#" xmlns:dc="http://purl.org/dc/elements/1.1/" xmlns:rdf="http://www.w3.org/1999/02/22-rdf-syntax-ns#">
 <metadata>
  <rdf:RDF>
   <cc:Work rdf:about="">
    <dc:format>image/svg+xml</dc:format>
    <dc:type rdf:resource="http://purl.org/dc/dcmitype/StillImage"/>
    <dc:title/>
   </cc:Work>
  </rdf:RDF>
 </metadata>
 <path d="M22.891 15.949l-7.647 2.921V6.537l7.647 2.708z" fill="#804998"/>
 <path d="M8.289 8.565v8.1l5.728 2.179V6.537L8.289 8.565zm.628 7.513l-.312-.097V9.274l.312-.088.328-.092.349-.098v7.292l-.349-.108-.328-.102zm1.436.445l-.392-.121v-7.51l.392-.11.415-.117.444-.125v8.249l-.444-.138-.415-.128zm1.84.569l-.508-.157V8.407l.508-.143.542-.153.586-.165v9.496l-.586-.181-.542-.169z" fill="#68217a"/>
 <path d="M40.791 15.949l-7.648 2.921V6.537l7.648 2.708z" fill="#804998"/>
 <path d="M26.189 8.565v8.1l5.728 2.179V6.537l-5.728 2.028zm.627 7.513l-.312-.097V9.274l.312-.088.328-.092.349-.098v7.292l-.349-.108-.328-.102zm1.436.445l-.392-.121v-7.51l.392-.11.415-.117.444-.125v8.249l-.444-.138-.415-.128zm1.84.569l-.508-.157V8.407l.508-.143.542-.153.586-.165v9.496l-.586-.181-.542-.169z" fill="#68217a"/>
 <path d="M22.891 40.543l-7.647 2.92V31.13l7.647 2.709z" fill="#804998"/>
 <path d="M8.289 33.159v8.1l5.728 2.179V31.13l-5.728 2.029zm.628 7.513l-.312-.097v-6.707l.312-.088.328-.092.349-.098v7.292l-.349-.108-.328-.102zm1.436.444l-.392-.121v-7.509l.392-.111.415-.117.444-.125v8.249l-.444-.138-.415-.128zm1.84.57l-.508-.157V33l.508-.143.542-.153.586-.165v9.496l-.586-.181-.542-.168z" fill="#68217a"/>
 <path d="M40.791 40.543l-7.648 2.92V31.13l7.648 2.709z" fill="#804998"/>
 <path d="M26.189 33.159v8.1l5.728 2.179V31.13l-5.728 2.029zm.627 7.513l-.312-.097v-6.707l.312-.088.328-.092.349-.098v7.292l-.349-.108-.328-.102zm1.436.444l-.392-.121v-7.509l.392-.111.415-.117.444-.125v8.249l-.444-.138-.415-.128zm1.84.57l-.508-.157V33l.508-.143.542-.153.586-.165v9.496l-.586-.181-.542-.168z" fill="#68217a"/>
 <path d="m32.417 28.21-7.648 2.92v-12.332l7.648 2.708z" fill="#804998"/>
 <path d="M17.815 20.826v8.1l5.728 2.179V18.798l-5.728 2.028zm.627 7.513l-.312-.097v-6.707l.312-.088.328-.092.349-.098v7.292l-.349-.108-.328-.102zm1.436.445l-.392-.121v-7.509l.392-.11.415-.117.444-.125v8.249l-.444-.138-.415-.129zm1.84.569l-.508-.157v-8.528l.508-.143.542-.153.586-.165v9.496l-.586-.181-.542-.169z" fill="#68217a"/>
 <path d="m14.61 28.21-7.648 2.92v-12.332l7.648 2.708z" fill="#804998"/>
 <path d="M.008 20.826v8.1l5.728 2.179V18.798L.008 20.826zm.627 7.513l-.312-.097v-6.707l.312-.088.328-.092.349-.098v7.292l-.349-.108-.328-.102zm1.436.445l-.392-.121v-7.509l.392-.11.415-.117.445-.127v8.249l-.444-.138-.416-.127zm1.84.569l-.508-.157v-8.528l.508-.143.542-.153.586-.165v9.496l-.586-.181-.542-.169z" fill="#68217a"/>
 <path d="M50 28.21l-7.648 2.92V18.798L50 21.506z" fill="#804998"/>
 <path d="M35.398 20.826v8.1l5.728 2.179V18.798l-5.728 2.028zm.627 7.513l-.312-.097v-6.707l.312-.088.328-.092.349-.098v7.292l-.349-.108-.328-.102zm1.436.445l-.392-.121v-7.509l.392-.11.415-.117.444-.125v8.249l-.444-.138-.415-.129zm1.84.569l-.508-.157v-8.528l.508-.143.542-.153.586-.165v9.496l-.586-.181-.542-.169z" fill="#68217a"/>
</svg>
