<?xml version="1.0" encoding="UTF-8"?>
<svg class="" data-islogo="true" data-type="154" focusable="false" role="presentation" version="1.1" viewBox="0 0 18 18" xmlns="http://www.w3.org/2000/svg" xmlns:cc="http://creativecommons.org/ns#" xmlns:dc="http://purl.org/dc/elements/1.1/" xmlns:rdf="http://www.w3.org/1999/02/22-rdf-syntax-ns#">
 <metadata>
  <rdf:RDF>
   <cc:Work rdf:about="">
    <dc:format>image/svg+xml</dc:format>
    <dc:type rdf:resource="http://purl.org/dc/dcmitype/StillImage"/>
    <dc:title/>
   </cc:Work>
  </rdf:RDF>
 </metadata>
 <defs>
  <linearGradient id="13c7faaf-c808-4b0a-8b59-d062456c03fa" x1="10.56" x2="10.56" y1="6.02" y2="19.71" gradientUnits="userSpaceOnUse">
   <stop stop-color="#5ea0ef" offset=".18"/>
   <stop stop-color="#0078d4" offset="1"/>
  </linearGradient>
  <linearGradient id="312f5f0e-2665-4dbe-ad9a-f9be3cbceffa" x1="5.57" x2="5.57" y1="17.5" y2=".5" gradientUnits="userSpaceOnUse">
   <stop stop-color="#949494" offset=".05"/>
   <stop stop-color="#979797" offset=".36"/>
   <stop stop-color="#9f9f9f" offset=".54"/>
   <stop stop-color="#adadad" offset=".69"/>
   <stop stop-color="#b3b3b3" offset=".73"/>
  </linearGradient>
 </defs>
 <path d="M10.56 16.93a.56.56 0 0 1-.57.57H1.14a.56.56 0 0 1-.56-.57V1.07A.56.56 0 0 1 1.14.5H10a.56.56 0 0 1 .57.57z" fill="url(#312f5f0e-2665-4dbe-ad9a-f9be3cbceffa)"/>
 <path d="M2 6.46a1.08 1.08 0 0 1 1.13-1.08h5a1.08 1.08 0 0 1 1.05 1.08A1.08 1.08 0 0 1 8.1 7.55h-5A1.09 1.09 0 0 1 2 6.46zm0-3.22a1.09 1.09 0 0 1 1.13-1.09h5a1.08 1.08 0 0 1 1.05 1.09A1.08 1.08 0 0 1 8.1 4.32h-5A1.08 1.08 0 0 1 2 3.24z" fill="#003067"/>
 <circle cx="3.17" cy="3.24" r=".73" fill="#50e6ff"/>
 <circle cx="3.17" cy="6.46" r=".73" fill="#50e6ff"/>
 <path d="m17.42 14.38a3.12 3.12 0 0 0-2.67-3 3.93 3.93 0 0 0-4-3.8 4 4 0 0 0-3.83 2.66 3.7 3.7 0 0 0-3.22 3.59 3.77 3.77 0 0 0 3.86 3.67h6.77a3.15 3.15 0 0 0 3.09-3.12z" fill="url(#13c7faaf-c808-4b0a-8b59-d062456c03fa)"/>
</svg>
